<svg xmlns="http://www.w3.org/2000/svg" viewBox="0 0 48 48" fill="none">
  <defs>
    <linearGradient id="g" x1="6" y1="6" x2="42" y2="42" gradientUnits="userSpaceOnUse">
      <stop offset="0" stop-color="#60A5FA" />
      <stop offset="0.5" stop-color="#A78BFA" />
      <stop offset="1" stop-color="#C084FC" />
    </linearGradient>
  </defs>

  <!--  -->
  <circle cx="24" cy="24" r="20" stroke="url(#g)" stroke-width="2.5" />

  <!-- 12 ;¦í¿ -->
  <g stroke="url(#g)" stroke-width="2.5" stroke-linecap="round">
    <line x1="24" y1="4" x2="24" y2="7.5" />
    <line x1="24" y1="4" x2="24" y2="7.5" transform="rotate(30 24 24)" />
    <line x1="24" y1="4" x2="24" y2="7.5" transform="rotate(60 24 24)" />
    <line x1="24" y1="4" x2="24" y2="7.5" transform="rotate(90 24 24)" />
    <line x1="24" y1="4" x2="24" y2="7.5" transform="rotate(120 24 24)" />
    <line x1="24" y1="4" x2="24" y2="7.5" transform="rotate(150 24 24)" />
    <line x1="24" y1="4" x2="24" y2="7.5" transform="rotate(180 24 24)" />
    <line x1="24" y1="4" x2="24" y2="7.5" transform="rotate(210 24 24)" />
    <line x1="24" y1="4" x2="24" y2="7.5" transform="rotate(240 24 24)" />
    <line x1="24" y1="4" x2="24" y2="7.5" transform="rotate(270 24 24)" />
    <line x1="24" y1="4" x2="24" y2="7.5" transform="rotate(300 24 24)" />
    <line x1="24" y1="4" x2="24" y2="7.5" transform="rotate(330 24 24)" />
  </g>

  <!-- */-è„âj -->
  <path
    d="M6 24 C9.5 17.5 14.5 17.5 18 24 C21.5 30.5 26.5 30.5 30 24 C33.5 17.5 38.5 17.5 42 24"
    stroke="url(#g)"
    stroke-width="2.5"
    stroke-linecap="round"
    stroke-linejoin="round"
  />

  <!-- ¯
 3 —žÃ¹ -->
  <circle cx="24" cy="4" r="3" fill="#A78BFA" />
  <circle cx="41.32" cy="34" r="3" fill="#60A5FA" />
  <circle cx="6.68" cy="34" r="3" fill="#C084FC" />
</svg>